<?xml version="1.0" encoding="UTF-8"?>
<!DOCTYPE svg PUBLIC "-//W3C//DTD SVG 1.1//EN" "http://www.w3.org/Graphics/SVG/1.1/DTD/svg11.dtd">
<!-- Creator: CorelDRAW X7 -->
<svg xmlns="http://www.w3.org/2000/svg" xml:space="preserve" width="6.66667in" height="0.583496in" version="1.1" style="shape-rendering:geometricPrecision; text-rendering:geometricPrecision; image-rendering:optimizeQuality; fill-rule:evenodd; clip-rule:evenodd"
viewBox="0 0 6667 583"
 xmlns:xlink="http://www.w3.org/1999/xlink">
 <defs>
  <style type="text/css">
   <![CDATA[
    .fil0 {fill:#1B749E}
   ]]>
  </style>
 </defs>
 <g id="Layer_x0020_1">
  <metadata id="CorelCorpID_0Corel-Layer"/>
  <g id="_2611156331504">
   <path class="fil0" d="M743 583l-224 0 0 -179 -106 0 0 -135 106 0 0 -135 -106 0 0 -134 197 0 133 90 0 493zm-412 -179l-107 0 0 179 -224 0 0 -493 134 -90 197 0 0 134 -107 0 0 135 107 0 0 135z"/>
   <path class="fil0" d="M1622 493l-133 90 -206 0 0 -135 115 0 0 -314 -115 0 0 -134 206 0 133 90 0 403zm-421 90l-340 0 0 -583 340 0 0 134 -117 0 0 314 117 0 0 135z"/>
   <path class="fil0" d="M2499 493l-134 90 -205 0 0 -135 115 0 0 -314 -115 0 0 -134 205 0 134 90 0 403zm-422 90l-339 0 0 -583 339 0 0 134 -116 0 0 314 116 0 0 135z"/>
   <polygon class="fil0" points="3036,0 3364,0 3364,134 3036,134 "/>
   <polygon class="fil0" points="3036,224 3364,224 3364,358 3036,358 "/>
   <polygon class="fil0" points="2954,583 2614,583 2614,0 2954,0 2954,134 2883,134 2883,224 2954,224 2954,341 2883,341 2883,448 2954,448 "/>
   <polygon class="fil0" points="3375,583 3036,583 3036,448 3375,448 "/>
   <polygon class="fil0" points="3911,0 4257,0 4257,134 3911,134 "/>
   <polygon class="fil0" points="3829,346 3647,346 3466,257 3466,90 3647,0 3829,0 3829,134 3737,134 3737,229 3829,229 "/>
   <polygon class="fil0" points="3829,583 3471,583 3471,448 3829,448 "/>
   <polygon class="fil0" points="5133,134 5066,134 5066,191 4786,191 4786,112 4958,0 5133,0 "/>
   <polygon class="fil0" points="5215,221 5332,221 5332,134 5215,134 5215,0 5376,0 5555,90 5555,266 5376,356 5215,356 "/>
   <polygon class="fil0" points="5133,583 4793,583 4793,311 4973,221 5133,221 5133,356 5062,356 5062,448 5133,448 "/>
   <polygon class="fil0" points="5555,583 5215,583 5215,448 5555,448 "/>
   <polygon class="fil0" points="5784,583 5725,583 5725,526 5784,526 "/>
   <polygon class="fil0" points="6244,583 6084,583 5905,493 5905,90 6084,0 6244,0 6244,134 6173,134 6173,135 6173,448 6173,449 6244,449 "/>
   <polygon class="fil0" points="6487,583 6327,583 6327,449 6398,449 6398,135 6397,135 6397,134 6327,134 6327,0 6487,0 6667,90 6667,493 "/>
   <polygon class="fil0" points="3911,575 4094,575 4274,486 4274,319 4094,229 3911,229 3911,363 4004,363 4004,458 3911,458 "/>
  </g>
 </g>
</svg>
