<?xml version="1.0" encoding="utf-8"?>
<!-- Generator: Adobe Illustrator 19.0.0, SVG Export Plug-In . SVG Version: 6.00 Build 0)  -->
<svg version="1.1" id="Layer_1" xmlns="http://www.w3.org/2000/svg" xmlns:xlink="http://www.w3.org/1999/xlink" x="0px" y="0px"
	 viewBox="-411 482.5 176.6 37.5" style="enable-background:new -411 482.5 176.6 37.5;" xml:space="preserve">
<style type="text/css">
	.st0{fill:#808080;}
	.st1{font-family:'Geometric415BT-BlackA';}
	.st2{font-size:11.3885px;}
	.st3{fill:#4D4D4D;}
	.st4{fill:#FF6600;}
	.st5{fill:none;stroke:#B3B3B3;stroke-width:1.0503;}
</style>
<g transform="matrix(0.999999 0 0 1 -1027.89 -521.799)">
	<text transform="matrix(1 0 0 1 711.169 1015.3196)" class="st0 st1 st2">VISUAL </text>
</g>
<g transform="matrix(0.999999 0 0 1 -1027.89 -521.799)">
</g>
<g transform="matrix(0.999999 0 0 1 -1027.89 -521.799)">
	<text transform="matrix(1 0 0 1 711.169 1027.6576)" class="st0 st1 st2">MERCHANDISE </text>
</g>
<g transform="matrix(0.999999 0 0 1 -1027.89 -521.799)">
</g>
<g transform="matrix(0.999999 0 0 1 -1027.89 -521.799)">
	<text transform="matrix(1 0 0 1 711.169 1039.9963)" class="st0 st1 st2">XCELLENCE</text>
</g>
<g transform="matrix(0.999999 0 0 1 -1027.89 -521.799)">
</g>
<g>
	<path class="st3" d="M-362.3,510.5l6.6-10l-6.6-9h4.3l13.8,19h-4.3l-3.8-5.2l-3.3,5.2H-362.3z M-350,495.3l2.4-3.3h4.7l-4.7,6.6
		L-350,495.3z"/>
	<polygon class="st3" points="-391.8,510.5 -387,486.3 -386.5,486.3 -377.5,501.5 -369.4,486.3 -369,486.3 -363.8,510.5 
		-369.4,510.5 -371.3,499.6 -377.5,511.5 -378,511.5 -384.6,499.6 -386.5,510.5 	"/>
	<polygon class="st3" points="-400.3,510.5 -410.7,491.5 -405,491.5 -397.9,504.3 -396,491.5 -390.3,491.5 -394.1,510.5 	"/>
	<path class="st4" d="M-362.3,520l12.3-18l3.8,4.7l-9,13.3h-6.6H-362.3z M-353.3,491.5h4.7l2.8,4.3l9.5-13.3h6.6l-12.3,18l7.1,10
		h-4.7L-353.3,491.5z"/>
</g>
<line class="st5" x1="-323.4" y1="482.5" x2="-323.4" y2="520"/>
</svg>
