<?xml version="1.0" encoding="utf-8"?>
<!-- Generator: Adobe Illustrator 19.0.0, SVG Export Plug-In . SVG Version: 6.00 Build 0)  -->
<svg version="1.1" id="Layer_1" xmlns="http://www.w3.org/2000/svg" xmlns:xlink="http://www.w3.org/1999/xlink" x="0px" y="0px"
	 viewBox="-440.4 476.3 235.5 50" style="enable-background:new -440.4 476.3 235.5 50;" xml:space="preserve">
<style type="text/css">
	.st0{enable-background:new    ;}
	.st1{fill:#FFFDFD;}
	.st2{fill:#FFFFFF;}
	.st3{fill:#FF6600;}
	.st4{fill:none;stroke:#B3B3B3;stroke-width:1.0503;}
</style>
<g transform="matrix(0.999999 0 0 1 -1027.89 -521.799)">
	<g class="st0">
		<path class="st1" d="M717.8,1013.3h-0.2l-5-11h2.7l2.5,5.8l2.5-5.8h2.5L717.8,1013.3z"/>
		<path class="st1" d="M723.6,1012.9v-10.6h2.5v10.6H723.6z"/>
		<path class="st1" d="M728.1,1009.9c0.7,0.4,1.2,0.7,1.7,0.8c0.5,0.2,0.9,0.2,1.3,0.2c0.4,0,0.8-0.1,1.1-0.3
			c0.3-0.2,0.4-0.4,0.4-0.7c0-0.4-0.5-0.9-1.4-1.5c-0.1-0.1-0.3-0.2-0.3-0.2l-0.7-0.4c-0.7-0.4-1.2-0.8-1.5-1.3
			c-0.3-0.5-0.5-1.1-0.5-1.7c0-0.9,0.3-1.5,1-2.1c0.6-0.5,1.5-0.8,2.5-0.8c0.4,0,0.8,0,1.2,0.1c0.4,0.1,0.9,0.2,1.5,0.4v2.5
			c-0.5-0.3-1-0.6-1.5-0.7c-0.5-0.2-0.8-0.3-1.2-0.3c-0.4,0-0.6,0.1-0.8,0.2c-0.2,0.2-0.3,0.4-0.3,0.6c0,0.2,0.1,0.4,0.2,0.5
			c0.1,0.2,0.3,0.3,0.5,0.4l1.2,0.7c1,0.6,1.7,1.1,2.1,1.6c0.4,0.5,0.5,1.1,0.5,1.7c0,1-0.4,1.9-1.1,2.5c-0.7,0.6-1.6,1-2.8,1
			c-0.4,0-0.8,0-1.3-0.1c-0.5-0.1-1-0.2-1.5-0.4L728.1,1009.9z"/>
		<path class="st1" d="M739.2,1002.3v5.8c0,0.9,0.2,1.6,0.5,2.1c0.3,0.5,0.9,0.7,1.6,0.7c0.7,0,1.2-0.2,1.5-0.6
			c0.4-0.4,0.5-1.1,0.5-1.9v-6.1h2.3v6.1c0,1.5-0.4,2.7-1.2,3.6c-0.8,0.9-1.9,1.3-3.3,1.3c-1.4,0-2.5-0.4-3.3-1.3
			c-0.8-0.8-1.2-2-1.2-3.6v-6.1H739.2z"/>
		<path class="st1" d="M746,1012.9l5.4-10.9h0.2l5.3,10.9h-2.6l-0.7-1.5h-4.3l-0.7,1.5H746z M750,1009.5h2.8l-1.4-3.3L750,1009.5z"
			/>
		<path class="st1" d="M757.7,1012.9v-10.6h2.5v8.3h4.1v2.3H757.7z"/>
	</g>
</g>
<g transform="matrix(0.999999 0 0 1 -1027.89 -521.799)">
	<g class="st0">
		<path class="st1" d="M713.3,1029.1l2.2-10.9h0.2l4,6.9l3.8-6.9h0.2l2.2,10.9h-2.4l-0.9-4.8l-2.8,5.2h-0.2l-3-5.3l-0.9,4.9H713.3z"
			/>
		<path class="st1" d="M727.4,1029.1v-10.6h6.5v2.2h-4.1v1.9h3.5v2.2h-3.5v2.1h4.1v2.2H727.4z"/>
		<path class="st1" d="M735.9,1029.1v-10.6h2.7c0.9,0,1.5,0.1,2,0.2c0.5,0.1,0.9,0.3,1.3,0.6c0.4,0.3,0.7,0.6,0.9,1
			c0.2,0.4,0.3,0.9,0.3,1.3c0,0.7-0.2,1.2-0.5,1.8c-0.3,0.5-0.8,0.9-1.5,1.2l3.2,4.5h-2.9l-2.8-4.1h-0.4v4.1H735.9z M738.7,1020.4
			h-0.4v2.9h0.5c0.6,0,1.1-0.1,1.5-0.4c0.3-0.3,0.5-0.6,0.5-1.1c0-0.5-0.2-0.9-0.5-1.1C740,1020.5,739.5,1020.4,738.7,1020.4z"/>
		<path class="st1" d="M753.2,1021.9c-0.5-0.5-0.9-0.8-1.4-1.1c-0.5-0.2-1-0.3-1.5-0.3c-0.9,0-1.6,0.3-2.2,0.9
			c-0.6,0.6-0.9,1.4-0.9,2.4c0,1,0.3,1.8,0.8,2.4c0.6,0.6,1.3,0.9,2.2,0.9c0.5,0,1.1-0.1,1.6-0.3c0.5-0.2,1.1-0.6,1.6-1l-0.2,2.8
			c-0.5,0.3-0.9,0.5-1.5,0.7c-0.5,0.2-1.1,0.2-1.7,0.2c-0.6,0-1.2-0.1-1.8-0.3c-0.6-0.2-1.1-0.5-1.6-0.9c-0.7-0.5-1.2-1.2-1.6-2
			c-0.4-0.8-0.5-1.6-0.5-2.5c0-0.8,0.1-1.5,0.4-2.2s0.7-1.3,1.2-1.8c0.5-0.5,1.1-0.9,1.8-1.2c0.7-0.3,1.4-0.4,2.1-0.4
			c0.6,0,1.2,0.1,1.7,0.2c0.5,0.2,1.1,0.4,1.5,0.8L753.2,1021.9z"/>
		<path class="st1" d="M755.2,1029.1v-10.6h2.5v3.9h4.1v-3.9h2.5v10.6h-2.5v-4.4h-4.1v4.4H755.2z"/>
		<path class="st1" d="M765,1029.1l5.4-10.9h0.2l5.3,10.9h-2.6l-0.7-1.5h-4.3l-0.7,1.5H765z M769,1025.7h2.8l-1.4-3.3L769,1025.7z"
			/>
		<path class="st1" d="M776.6,1029.1v-10.9h0.2l6.6,6.2v-5.8h2.3v11h-0.2l-6.6-6.2v5.8H776.6z"/>
		<path class="st1" d="M788.2,1029.1v-10.6h2.8c2,0,3.5,0.5,4.6,1.4c1.1,0.9,1.7,2.2,1.7,3.9c0,1-0.2,1.9-0.7,2.6
			c-0.4,0.8-1.1,1.4-1.9,1.9c-0.5,0.3-1,0.5-1.6,0.6c-0.6,0.1-1.3,0.2-2.1,0.2H788.2z M790.7,1026.8h0.6c1.1,0,2-0.3,2.6-0.8
			c0.6-0.5,0.9-1.3,0.9-2.2c0-0.9-0.3-1.7-0.9-2.2c-0.6-0.5-1.5-0.8-2.6-0.8h-0.6V1026.8z"/>
		<path class="st1" d="M799.1,1029.1v-10.6h2.5v10.6H799.1z"/>
		<path class="st1" d="M803.6,1026.1c0.7,0.4,1.2,0.7,1.7,0.8c0.5,0.2,0.9,0.2,1.3,0.2c0.4,0,0.8-0.1,1.1-0.3
			c0.3-0.2,0.4-0.4,0.4-0.7c0-0.4-0.5-0.9-1.4-1.5c-0.1-0.1-0.3-0.2-0.3-0.2l-0.7-0.4c-0.7-0.4-1.2-0.8-1.5-1.3
			c-0.3-0.5-0.5-1.1-0.5-1.7c0-0.9,0.3-1.5,1-2.1c0.6-0.5,1.5-0.8,2.5-0.8c0.4,0,0.8,0,1.2,0.1c0.4,0.1,0.9,0.2,1.5,0.4v2.5
			c-0.5-0.3-1-0.6-1.5-0.7c-0.5-0.2-0.8-0.3-1.2-0.3c-0.4,0-0.6,0.1-0.8,0.2c-0.2,0.2-0.3,0.4-0.3,0.6c0,0.2,0.1,0.4,0.2,0.5
			c0.1,0.2,0.3,0.3,0.5,0.4l1.2,0.7c1,0.6,1.7,1.1,2.1,1.6c0.4,0.5,0.5,1.1,0.5,1.7c0,1-0.4,1.9-1.1,2.5c-0.7,0.6-1.6,1-2.8,1
			c-0.4,0-0.8,0-1.3-0.1c-0.5-0.1-1-0.2-1.5-0.4L803.6,1026.1z"/>
		<path class="st1" d="M812.3,1029.1v-10.6h6.5v2.2h-4.1v1.9h3.5v2.2h-3.5v2.1h4.1v2.2H812.3z"/>
	</g>
</g>
<g transform="matrix(0.999999 0 0 1 -1027.89 -521.799)">
	<g class="st0">
		<path class="st1" d="M713.1,1045.3l3.8-5.5l-3.7-5.1h3.1l2.2,3l2-3h2.7l-3.4,4.9l4.2,5.7h-3.1l-2.6-3.6l-2.4,3.6H713.1z"/>
		<path class="st1" d="M732.3,1038c-0.5-0.5-0.9-0.8-1.4-1.1c-0.5-0.2-1-0.3-1.5-0.3c-0.9,0-1.6,0.3-2.2,0.9
			c-0.6,0.6-0.9,1.4-0.9,2.4s0.3,1.8,0.8,2.4c0.6,0.6,1.3,0.9,2.2,0.9c0.5,0,1.1-0.1,1.6-0.3c0.5-0.2,1.1-0.6,1.6-1l-0.2,2.8
			c-0.5,0.3-0.9,0.5-1.5,0.7c-0.5,0.2-1.1,0.2-1.7,0.2c-0.6,0-1.2-0.1-1.8-0.3c-0.6-0.2-1.1-0.5-1.6-0.9c-0.7-0.5-1.2-1.2-1.6-2
			c-0.4-0.8-0.5-1.6-0.5-2.5c0-0.8,0.1-1.5,0.4-2.2c0.3-0.7,0.7-1.3,1.2-1.8c0.5-0.5,1.1-0.9,1.8-1.2c0.7-0.3,1.4-0.4,2.1-0.4
			c0.6,0,1.2,0.1,1.7,0.2c0.5,0.2,1.1,0.4,1.5,0.8L732.3,1038z"/>
		<path class="st1" d="M734.3,1045.3v-10.6h6.5v2.2h-4.1v1.9h3.5v2.2h-3.5v2.1h4.1v2.2H734.3z"/>
		<path class="st1" d="M742.8,1045.3v-10.6h2.5v8.3h4.1v2.3H742.8z"/>
		<path class="st1" d="M750.7,1045.3v-10.6h2.5v8.3h4.1v2.3H750.7z"/>
		<path class="st1" d="M758.6,1045.3v-10.6h6.5v2.2H761v1.9h3.5v2.2H761v2.1h4.1v2.2H758.6z"/>
		<path class="st1" d="M767.1,1045.3v-10.9h0.2l6.6,6.2v-5.8h2.3v11H776l-6.6-6.2v5.8H767.1z"/>
		<path class="st1" d="M786.5,1038c-0.5-0.5-0.9-0.8-1.4-1.1c-0.5-0.2-1-0.3-1.5-0.3c-0.9,0-1.6,0.3-2.2,0.9s-0.9,1.4-0.9,2.4
			s0.3,1.8,0.8,2.4c0.6,0.6,1.3,0.9,2.2,0.9c0.5,0,1.1-0.1,1.6-0.3c0.5-0.2,1.1-0.6,1.6-1l-0.2,2.8c-0.5,0.3-0.9,0.5-1.5,0.7
			c-0.5,0.2-1.1,0.2-1.7,0.2c-0.6,0-1.2-0.1-1.8-0.3c-0.6-0.2-1.1-0.5-1.6-0.9c-0.7-0.5-1.2-1.2-1.6-2c-0.4-0.8-0.5-1.6-0.5-2.5
			c0-0.8,0.1-1.5,0.4-2.2c0.3-0.7,0.7-1.3,1.2-1.8c0.5-0.5,1.1-0.9,1.8-1.2c0.7-0.3,1.4-0.4,2.1-0.4c0.6,0,1.2,0.1,1.7,0.2
			c0.5,0.2,1.1,0.4,1.5,0.8L786.5,1038z"/>
		<path class="st1" d="M788.4,1045.3v-10.6h6.5v2.2h-4.1v1.9h3.5v2.2h-3.5v2.1h4.1v2.2H788.4z"/>
	</g>
</g>
<g>
	<path class="st2" d="M-374.7,513.4l8.7-13.1l-8.7-11.8h5.6l18,24.9h-5.6l-5-6.8l-4.4,6.8H-374.7z M-358.6,493.5l3.1-4.4h6.2
		l-6.2,8.7L-358.6,493.5z"/>
	<polygon class="st2" points="-413.3,513.4 -407.1,481.6 -406.5,481.6 -394.7,501.6 -384.1,481.6 -383.4,481.6 -376.6,513.4 
		-384.1,513.4 -386.6,499.1 -394.7,514.6 -395.3,514.6 -404,499.1 -406.5,513.4 	"/>
	<polygon class="st2" points="-424.5,513.4 -438.2,488.5 -430.7,488.5 -421.4,505.3 -418.9,488.5 -411.5,488.5 -416.4,513.4 	"/>
	<path class="st3" d="M-374.7,525.8l16.2-23.6l5,6.2l-11.8,17.4h-8.7H-374.7z M-362.9,488.5h6.2l3.7,5.6l12.4-17.4h8.7l-16.2,23.6
		l9.3,13.1h-6.2L-362.9,488.5z"/>
</g>
<line class="st4" x1="-323.7" y1="476.7" x2="-323.7" y2="525.8"/>
</svg>
