<?xml version="1.0" encoding="utf-8"?>
<!-- Generator: Adobe Illustrator 16.0.0, SVG Export Plug-In . SVG Version: 6.00 Build 0)  -->
<!DOCTYPE svg PUBLIC "-//W3C//DTD SVG 1.1//EN" "http://www.w3.org/Graphics/SVG/1.1/DTD/svg11.dtd">
<svg version="1.1" id="Layer_1" xmlns="http://www.w3.org/2000/svg" xmlns:xlink="http://www.w3.org/1999/xlink" x="0px" y="0px"
	 width="265px" height="85px" viewBox="0 0 265 85" enable-background="new 0 0 265 85" xml:space="preserve">
<path fill="#ED1C24" d="M67.176,65.106c-0.344-0.281-0.864-0.508-0.864-0.508c-0.843-0.352-7.281-3.275-14.333-4.66
	c-6.585-1.295-13.842-1.064-13.842-1.064c-2.298-0.477-3.544,1.279-3.544,1.279c-1.382,0.867-2.722,1.592-3.857,1.615
	c-2.751,0.059-4.437-1.58-4.437-1.58c-4.867-0.566-1.791-2.633-1.791-2.633c-2.625-1.293,0.128-2.934,0.128-2.934
	c-2.554-1.102,0.18-2.975,0.18-2.975c-1.744-0.922-0.909-1.848-0.909-1.848c1.148-1.258,7.091,0.021,7.091,0.021
	c0.362-0.375,1.19-0.793,1.19-0.793c2.658-0.73,4.9,3.285,4.9,3.285c3.181-0.902,16.6,0.252,16.6,0.252
	c-0.163,0.092,11.172,2.596,17.032,4.398c0.34,0.059,0.99,0.336,1.261,0.316L67.176,65.106z"/>
<path fill="#ED1C24" d="M39.951,6.224c-20.649,0-37.389,16.738-37.389,37.388C2.563,64.26,19.302,81,39.951,81
	S77.34,64.26,77.34,43.612C77.34,22.962,60.601,6.224,39.951,6.224z M39.951,77.659c-18.804,0-34.047-15.244-34.047-34.047
	c0-18.804,15.243-34.046,34.047-34.046s34.047,15.242,34.047,34.046C73.998,62.415,58.755,77.659,39.951,77.659z"/>
<path fill="#ED1C24" d="M63.895,18.62c-0.26,0.203-0.408,0.334-0.777,0.734c-3.717,4.875-9.986,14.646-10.015,14.461
	c0,0-5.723,12.193-5.976,15.49c0,0-4.543,0.715-4.777,3.461c0,0,0.106,0.922,0.333,1.393c0,0-3.255,5.133-2.471,6.646
	c0,0,0.579,1.104,2.047-0.215c0,0,0.813,3.213,2.729,1.197c0,0,0.587,3.152,2.708,1.135c0,0,0.875,3.602,3.089-0.77
	c0,0,2.121-1.016,3.017-3.617c0.37-1.074,0.152-2.582-0.183-4.178c0,0-1.216-1.777,0.025-3.77c0,0,2.293-6.889,5.784-12.62
	c3.737-6.138,8.707-11.168,9.329-11.837c0,0,0.457-0.449,0.549-0.616L63.895,18.62z"/>
<path fill="#ED1C24" d="M24.05,13.171c0.101,0.148,0.546,1.027,0.653,1.183c3.536,5.149,10.359,13.694,10.181,13.663
	c0,0,9.717,9.326,12.759,10.621c0,0-0.777,4.533,1.749,5.634c0,0,0.907,0.195,1.425,0.131c0,0,3.821,4.727,5.505,4.469
	c0,0,1.231-0.195,0.454-2.008c0,0,3.303,0.258,2.008-2.203c0,0,3.173,0.453,1.943-2.201c0,0,3.691,0.324,0.259-3.173
	c0,0-0.282-2.334-2.46-4.016c-0.898-0.694-2.396-0.972-4.017-1.165c0,0-2.072,0.583-3.562-1.231c0,0-5.791-4.379-10.103-9.521
	c-4.054-4.834-6.995-10.295-7.946-12.101c-0.132-0.25-0.625-1.221-0.679-1.318L24.05,13.171z"/>
<path fill="#ED1C24" d="M5.77,45.762c0.025-0.115,0.663-0.078,0.697-0.178c6.042-1.037,17.289-3.918,17.184-3.764
	c0,0,12.496-5.025,14.927-7.265c0,0,3.813,2.57,5.855,0.719c0,0,0.55-0.746,0.704-1.245c0,0,5.88-1.54,6.337-3.181
	c0,0,0.328-1.203-1.645-1.239c0,0,1.594-2.905-1.182-2.735c0,0,1.717-2.707-1.209-2.676c0,0,1.812-3.232-2.787-1.541
	c0,0-2.244-0.701-4.672,0.592c-1.002,0.535-1.871,1.786-2.713,3.184c0,0-0.319,2.129-2.585,2.741c0,0-6.372,3.48-12.833,5.298
	c-6.917,1.947-13.982,2.242-14.893,2.31c0,0-0.236,0.08-0.764-0.081L5.77,45.762z"/>
<g>
	<path fill="#ED1C24" d="M24.582,43.618c0,0,0.36,2.393,0.57,5.697c2.121-0.293,5.847,0.506,5.847,0.506
		c0.31-0.32,0.955-0.67,1.138-0.766c-0.269-3.068-0.648-6.018-1.164-7.256c0,0,3.722-2.701,2.682-5.253c0,0-0.513-0.773-0.929-1.088
		c0,0,0.567-6.053-0.818-7.044c0,0-1.017-0.72-1.727,1.121c0,0-2.184-2.493-2.975,0.173c0,0-1.955-2.54-2.928,0.221
		c0,0-2.416-2.811-2.402,2.09c0,0-1.428,1.868-1.044,4.593c0.159,1.124,1.037,2.368,2.062,3.639
		C22.892,40.25,24.782,41.28,24.582,43.618z"/>
	<path fill="#ED1C24" d="M30.736,61.768c-2.751,0.059-4.437-1.58-4.437-1.58c-0.565-0.064-1.013-0.152-1.381-0.254
		c-0.763,6.191-2.464,11.561-2.685,12.338c0,0-0.059,0.287-0.307,0.725l8.266,3.422c-0.047-0.078,0.127-0.496,0.145-0.672
		c0.732-4.031,1.486-10.527,1.938-14.348C31.734,61.618,31.216,61.758,30.736,61.768z"/>
</g>
<path fill="#2E3192" d="M90.218,71.934v-17.24h14.584v2.916H94.189v3.822h9.875v2.906h-9.875v4.691h10.988v2.904H90.218z"/>
<path fill="#2E3192" d="M108.586,71.934v-17.24h3.864l8.05,11.514V54.694h3.689v17.24h-3.985l-7.929-11.242v11.242H108.586z"/>
<path fill="#2E3192" d="M132.817,71.934V57.61h-5.836v-2.916h15.631v2.916h-5.824v14.324H132.817z"/>
<path fill="#2E3192" d="M145.173,71.934v-17.24h14.585v2.916h-10.613v3.822h9.875v2.906h-9.875v4.691h10.988v2.904H145.173z"/>
<path fill="#2E3192" d="M163.514,71.934v-17.24h8.359c2.102,0,3.629,0.156,4.582,0.465c0.952,0.311,1.715,0.861,2.287,1.652
	c0.572,0.793,0.859,1.697,0.859,2.717c0,1.293-0.435,2.361-1.303,3.205c-0.867,0.842-2.164,1.373-3.891,1.592
	c0.859,0.439,1.568,0.922,2.127,1.447s1.313,1.459,2.261,2.799l2.401,3.363h-4.75l-2.871-3.752c-1.02-1.34-1.717-2.184-2.092-2.533
	c-0.377-0.35-0.774-0.588-1.195-0.717c-0.42-0.131-1.086-0.195-1.998-0.195h-0.806v7.197H163.514z M167.486,61.985h2.938
	c1.905,0,3.095-0.07,3.568-0.211c0.475-0.141,0.846-0.385,1.114-0.729c0.269-0.346,0.402-0.777,0.402-1.295
	c0-0.58-0.177-1.049-0.53-1.404c-0.354-0.357-0.852-0.582-1.496-0.676c-0.322-0.039-1.287-0.061-2.897-0.061h-3.1V61.985z"/>
<path fill="#2E3192" d="M183.344,71.934v-17.24h6.373c2.416,0,3.99,0.086,4.723,0.26c1.128,0.258,2.071,0.82,2.832,1.688
	c0.76,0.865,1.141,1.984,1.141,3.357c0,1.059-0.22,1.947-0.658,2.67c-0.438,0.721-0.995,1.287-1.67,1.699
	c-0.676,0.41-1.362,0.684-2.06,0.816c-0.948,0.164-2.321,0.246-4.119,0.246h-2.589v6.504H183.344z M187.317,57.61v4.893h2.173
	c1.565,0,2.612-0.09,3.14-0.27c0.527-0.182,0.941-0.463,1.241-0.848c0.3-0.383,0.449-0.83,0.449-1.34c0-0.627-0.21-1.145-0.63-1.553
	c-0.422-0.408-0.953-0.662-1.598-0.764c-0.474-0.078-1.426-0.119-2.857-0.119H187.317z"/>
<path fill="#2E3192" d="M201.686,71.934v-17.24h8.358c2.103,0,3.63,0.156,4.582,0.465c0.952,0.311,1.716,0.861,2.288,1.652
	c0.572,0.793,0.858,1.697,0.858,2.717c0,1.293-0.435,2.361-1.302,3.205c-0.867,0.842-2.164,1.373-3.891,1.592
	c0.858,0.439,1.567,0.922,2.127,1.447c0.559,0.525,1.313,1.459,2.26,2.799l2.402,3.363h-4.75l-2.871-3.752
	c-1.02-1.34-1.717-2.184-2.093-2.533s-0.774-0.588-1.194-0.717c-0.42-0.131-1.087-0.195-1.999-0.195h-0.806v7.197H201.686z
	 M205.657,61.985h2.939c1.904,0,3.094-0.07,3.568-0.211s0.846-0.385,1.113-0.729c0.269-0.346,0.402-0.777,0.402-1.295
	c0-0.58-0.176-1.049-0.529-1.404c-0.354-0.357-0.852-0.582-1.496-0.676c-0.322-0.039-1.288-0.061-2.898-0.061h-3.1V61.985z"/>
<path fill="#2E3192" d="M221.395,71.934v-17.24h3.971v17.24H221.395z"/>
<path fill="#2E3192" d="M228.143,66.325l3.865-0.33c0.232,1.139,0.704,1.973,1.415,2.506s1.671,0.799,2.878,0.799
	c1.279,0,2.243-0.236,2.892-0.711s0.973-1.029,0.973-1.664c0-0.408-0.137-0.754-0.409-1.041c-0.273-0.285-0.75-0.535-1.429-0.746
	c-0.466-0.141-1.525-0.393-3.181-0.752c-2.129-0.463-3.622-1.031-4.48-1.705c-1.208-0.949-1.812-2.105-1.812-3.471
	c0-0.877,0.284-1.699,0.853-2.463c0.567-0.764,1.386-1.346,2.455-1.746c1.068-0.4,2.358-0.6,3.87-0.6
	c2.469,0,4.327,0.475,5.575,1.422c1.247,0.949,1.902,2.215,1.965,3.799l-3.971,0.152c-0.17-0.885-0.535-1.521-1.094-1.91
	c-0.56-0.389-1.397-0.582-2.516-0.582c-1.154,0-2.058,0.207-2.711,0.623c-0.42,0.268-0.63,0.623-0.63,1.07
	c0,0.408,0.196,0.756,0.591,1.047c0.5,0.369,1.717,0.752,3.648,1.152c1.933,0.4,3.361,0.813,4.287,1.24s1.65,1.012,2.174,1.752
	c0.523,0.742,0.784,1.656,0.784,2.746c0,0.988-0.313,1.914-0.938,2.775c-0.626,0.863-1.512,1.504-2.657,1.924
	c-1.145,0.418-2.571,0.629-4.279,0.629c-2.487,0-4.396-0.504-5.729-1.512C229.2,69.721,228.403,68.254,228.143,66.325z"/>
<path fill="#2E3192" d="M247.477,71.934v-17.24h14.584v2.916h-10.612v3.822h9.875v2.906h-9.875v4.691h10.988v2.904H247.477z"/>
<g>
	<g>
		<path fill="#2E3192" d="M107.792,6.745h10.749l17.129,39.082h-11.956l-2.932-6.929h-15.52l-2.874,6.929H90.663L107.792,6.745z
			 M117.564,30.527l-4.483-11.031l-4.541,11.031H117.564z"/>
		<path fill="#2E3192" d="M139.575,7.022H158.6c6.15,0,10.404,1.552,13.105,4.213c2.357,2.217,3.564,5.21,3.564,9.036v0.111
			c0,5.932-3.277,9.868-8.277,11.918l9.599,13.526h-12.876l-8.104-11.752h-0.115h-4.771v11.752h-11.15V7.022z M158.083,25.649
			c3.794,0,5.979-1.774,5.979-4.601v-0.111c0-3.049-2.299-4.601-6.035-4.601h-7.301v9.313H158.083z"/>
		<path fill="#2E3192" d="M180.899,7.022h11.783l9.6,15.023l9.599-15.023h11.783v38.804h-11.093V23.542l-10.289,15.189h-0.23
			L191.82,23.653v22.174h-10.921V7.022z"/>
		<path fill="#2E3192" d="M227.741,40.062l6.207-7.151c3.967,3.049,8.393,4.657,13.049,4.657c2.988,0,4.598-0.998,4.598-2.661
			v-0.111c0-1.607-1.322-2.495-6.782-3.714c-8.564-1.885-15.175-4.213-15.175-12.196v-0.111c0-7.207,5.92-12.417,15.577-12.417
			c6.841,0,12.186,1.774,16.554,5.155l-5.575,7.595c-3.679-2.495-7.702-3.825-11.267-3.825c-2.701,0-4.023,1.109-4.023,2.495v0.111
			c0,1.774,1.38,2.55,6.955,3.77c9.255,1.94,15.003,4.823,15.003,12.085v0.111c0,7.927-6.495,12.64-16.267,12.64
			C239.466,46.493,232.684,44.331,227.741,40.062z"/>
	</g>
</g>
</svg>
