<?xml version="1.0" encoding="UTF-8"?>
<!DOCTYPE svg PUBLIC "-//W3C//DTD SVG 1.1//EN" "http://www.w3.org/Graphics/SVG/1.1/DTD/svg11.dtd">
<!-- Creator: CorelDRAW X6 -->
<svg xmlns="http://www.w3.org/2000/svg" xml:space="preserve" width="4.06024in" height="1.61049in" version="1.1" style="shape-rendering:geometricPrecision; text-rendering:geometricPrecision; image-rendering:optimizeQuality; fill-rule:evenodd; clip-rule:evenodd"
viewBox="0 0 8677 3442"
 xmlns:xlink="http://www.w3.org/1999/xlink">
 <defs>
  <style type="text/css">
   <![CDATA[
    .fil3 {fill:#1076BB}
    .fil4 {fill:#1C608D}
    .fil0 {fill:#283953}
    .fil5 {fill:#2AA4D6}
    .fil2 {fill:#2D496E}
    .fil1 {fill:#2FA7DC}
    .fil7 {fill:#7EC8E8}
    .fil6 {fill:#84D0EF}
   ]]>
  </style>
 </defs>
 <g id="Layer_x0020_1">
  <metadata id="CorelCorpID_0Corel-Layer"/>
  <g id="_325236112">
   <path class="fil0" d="M4572 3432l-318 0 509 -1909 -398 0 87 -318 1113 0 -87 318 -398 0 -509 1909zm594 -1861l-498 1861 -48 0 498 -1861 48 0zm95 0l-498 1861 -48 0 498 -1861 48 0zm361 -48l87 -318 48 0 -87 318 -48 0zm-95 0l87 -318 48 0 -87 318 -48 0z"/>
   <path class="fil1" d="M5468 3430l-235 0 375 -1408 -293 0 65 -235 821 0 -65 235 -293 0 -375 1408zm438 -1372l-368 1372 -35 0 368 -1372 35 0zm70 0l-368 1372 -35 0 368 -1372 35 0zm266 -35l65 -235 35 0 -65 235 -35 0zm-70 0l65 -235 35 0 -65 235 -35 0zm190 29l706 0 -59 215 -489 0c-17,64 -34,126 -50,186 -16,60 -33,122 -50,186l393 0 -59 215 -391 0c-18,64 -35,126 -50,186 -15,60 -32,122 -50,186l487 0 -55 215 -706 0 371 -1388zm1054 215c-26,0 -50,8 -71,25 -22,17 -36,38 -42,65l-209 782c-7,23 -4,43 8,60 12,16 29,25 53,26l98 0c26,-1 50,-11 71,-28 22,-18 36,-38 44,-62 8,-31 17,-65 26,-102 10,-36 19,-70 26,-102l215 0 -53 207c-12,42 -30,80 -56,116 -25,36 -55,67 -90,95 -35,27 -72,49 -113,65 -41,16 -82,25 -124,26l-96 -2c-70,-1 -127,-23 -170,-66 -43,-42 -65,-97 -65,-163 0,-13 1,-26 2,-38 1,-12 4,-25 8,-38 34,-128 69,-258 105,-391 36,-133 71,-263 105,-391 12,-42 30,-81 56,-117 25,-36 55,-68 90,-96 35,-27 72,-49 112,-65 40,-16 81,-23 123,-23l98 0c35,0 67,6 96,18 29,12 53,28 74,48 21,20 37,44 48,72 11,28 17,58 17,91 0,13 -1,26 -2,38 -1,12 -4,25 -8,38 -4,16 -9,33 -15,53 -6,20 -11,37 -15,53l-217 0 31 -109c7,-25 4,-45 -8,-62 -12,-16 -30,-24 -55,-24l-98 0zm401 1173l-217 0 371 -1388 217 0 -158 587 274 0c26,-98 52,-196 78,-293 26,-98 52,-195 78,-293l217 0 -371 1388 -217 0 156 -587 -272 0 -156 587z"/>
  </g>
  <g id="_325310336">
   <path class="fil2" d="M3915 45c80,0 145,65 145,145 0,80 -65,145 -145,145 -80,0 -145,-65 -145,-145 0,-80 65,-145 145,-145z"/>
   <path class="fil3" d="M3915 614c80,0 145,65 145,145 0,80 -65,145 -145,145 -80,0 -145,-65 -145,-145 0,-80 65,-145 145,-145z"/>
   <path class="fil4" d="M3915 1201c80,0 145,65 145,145 0,80 -65,145 -145,145 -80,0 -145,-65 -145,-145 0,-80 65,-145 145,-145z"/>
   <path class="fil2" d="M3915 1751c80,0 145,65 145,145 0,80 -65,145 -145,145 -80,0 -145,-65 -145,-145 0,-80 65,-145 145,-145z"/>
   <path class="fil0" d="M3372 45c80,0 145,65 145,145 0,80 -65,145 -145,145 -80,0 -145,-65 -145,-145 0,-80 65,-145 145,-145z"/>
   <path class="fil2" d="M3372 571c105,0 190,85 190,190 0,105 -85,190 -190,190 -105,0 -190,-85 -190,-190 0,-105 85,-190 190,-190z"/>
   <path class="fil4" d="M3372 1201c80,0 145,65 145,145 0,80 -65,145 -145,145 -80,0 -145,-65 -145,-145 0,-80 65,-145 145,-145z"/>
   <path class="fil4" d="M3372 1751c80,0 145,65 145,145 0,80 -65,145 -145,145 -80,0 -145,-65 -145,-145 0,-80 65,-145 145,-145z"/>
   <path class="fil2" d="M3372 2306c80,0 145,65 145,145 0,80 -65,145 -145,145 -80,0 -145,-65 -145,-145 0,-80 65,-145 145,-145z"/>
   <path class="fil0" d="M2821 0c105,0 190,85 190,190 0,105 -85,190 -190,190 -105,0 -190,-85 -190,-190 0,-105 85,-190 190,-190z"/>
   <path class="fil0" d="M2821 564c105,0 190,85 190,190 0,105 -85,190 -190,190 -105,0 -190,-85 -190,-190 0,-105 85,-190 190,-190z"/>
   <path class="fil0" d="M2821 1156c105,0 190,85 190,190 0,105 -85,190 -190,190 -105,0 -190,-85 -190,-190 0,-105 85,-190 190,-190z"/>
   <path class="fil0" d="M2821 1697c105,0 190,85 190,190 0,105 -85,190 -190,190 -105,0 -190,-85 -190,-190 0,-105 85,-190 190,-190z"/>
   <path class="fil1" d="M2821 2270c99,0 179,80 179,179 0,99 -80,179 -179,179 -99,0 -179,-80 -179,-179 0,-99 80,-179 179,-179z"/>
   <path class="fil3" d="M2827 2805c65,0 119,53 119,119 0,65 -53,119 -119,119 -65,0 -119,-53 -119,-119 0,-65 53,-119 119,-119z"/>
   <path class="fil4" d="M2281 3279c45,0 81,36 81,81 0,45 -36,81 -81,81 -45,0 -81,-36 -81,-81 0,-45 36,-81 81,-81z"/>
   <path class="fil2" d="M2281 2778c80,0 145,65 145,145 0,80 -65,145 -145,145 -80,0 -145,-65 -145,-145 0,-80 65,-145 145,-145z"/>
   <path class="fil4" d="M2281 2341c60,0 109,49 109,109 0,60 -49,109 -109,109 -60,0 -109,-49 -109,-109 0,-60 49,-109 109,-109z"/>
   <path class="fil3" d="M2281 1778c60,0 109,49 109,109 0,60 -49,109 -109,109 -60,0 -109,-49 -109,-109 0,-60 49,-109 109,-109z"/>
   <path class="fil4" d="M2279 1156c105,0 190,85 190,190 0,105 -85,190 -190,190 -105,0 -190,-85 -190,-190 0,-105 85,-190 190,-190z"/>
   <path class="fil3" d="M2279 564c105,0 190,85 190,190 0,105 -85,190 -190,190 -105,0 -190,-85 -190,-190 0,-105 85,-190 190,-190z"/>
   <path class="fil0" d="M2284 45c80,0 145,65 145,145 0,80 -65,145 -145,145 -80,0 -145,-65 -145,-145 0,-80 65,-145 145,-145z"/>
   <path class="fil3" d="M1728 614c80,0 145,65 145,145 0,80 -65,145 -145,145 -80,0 -145,-65 -145,-145 0,-80 65,-145 145,-145z"/>
   <path class="fil2" d="M1728 81c60,0 109,49 109,109 0,60 -49,109 -109,109 -60,0 -109,-49 -109,-109 0,-60 49,-109 109,-109z"/>
   <path class="fil2" d="M1180 650c60,0 109,49 109,109 0,60 -49,109 -109,109 -60,0 -109,-49 -109,-109 0,-60 49,-109 109,-109z"/>
   <path class="fil3" d="M1728 3279c45,0 81,36 81,81 0,45 -36,81 -81,81 -45,0 -81,-36 -81,-81 0,-45 36,-81 81,-81z"/>
   <path class="fil3" d="M1728 2814c60,0 109,49 109,109 0,60 -49,109 -109,109 -60,0 -109,-49 -109,-109 0,-60 49,-109 109,-109z"/>
   <path class="fil3" d="M1728 2341c60,0 109,49 109,109 0,60 -49,109 -109,109 -60,0 -109,-49 -109,-109 0,-60 49,-109 109,-109z"/>
   <path class="fil2" d="M1728 1778c60,0 109,49 109,109 0,60 -49,109 -109,109 -60,0 -109,-49 -109,-109 0,-60 49,-109 109,-109z"/>
   <path class="fil0" d="M1728 1182c91,0 164,74 164,164 0,91 -74,164 -164,164 -91,0 -164,-74 -164,-164 0,-91 74,-164 164,-164z"/>
   <path class="fil0" d="M1173 1156c105,0 190,85 190,190 0,105 -85,190 -190,190 -105,0 -190,-85 -190,-190 0,-105 85,-190 190,-190z"/>
   <path class="fil0" d="M1173 1701c105,0 190,85 190,190 0,105 -85,190 -190,190 -105,0 -190,-85 -190,-190 0,-105 85,-190 190,-190z"/>
   <path class="fil0" d="M1173 2257c105,0 190,85 190,190 0,105 -85,190 -190,190 -105,0 -190,-85 -190,-190 0,-105 85,-190 190,-190z"/>
   <path class="fil0" d="M1182 2763c88,0 160,72 160,160 0,88 -72,160 -160,160 -88,0 -160,-72 -160,-160 0,-88 72,-160 160,-160z"/>
   <path class="fil1" d="M1182 3279c45,0 81,36 81,81 0,45 -36,81 -81,81 -45,0 -81,-36 -81,-81 0,-45 36,-81 81,-81z"/>
   <path class="fil5" d="M633 3279c45,0 81,36 81,81 0,45 -36,81 -81,81 -45,0 -81,-36 -81,-81 0,-45 36,-81 81,-81z"/>
   <path class="fil6" d="M109 3279c45,0 81,36 81,81 0,45 -36,81 -81,81 -45,0 -81,-36 -81,-81 0,-45 36,-81 81,-81z"/>
   <path class="fil7" d="M633 2814c60,0 109,49 109,109 0,60 -49,109 -109,109 -60,0 -109,-49 -109,-109 0,-60 49,-109 109,-109z"/>
   <path class="fil3" d="M109 2814c60,0 109,49 109,109 0,60 -49,109 -109,109 -60,0 -109,-49 -109,-109 0,-60 49,-109 109,-109z"/>
   <path class="fil4" d="M633 2338c60,0 109,49 109,109 0,60 -49,109 -109,109 -60,0 -109,-49 -109,-109 0,-60 49,-109 109,-109z"/>
   <path class="fil1" d="M109 2338c60,0 109,49 109,109 0,60 -49,109 -109,109 -60,0 -109,-49 -109,-109 0,-60 49,-109 109,-109z"/>
   <path class="fil4" d="M633 1782c60,0 109,49 109,109 0,60 -49,109 -109,109 -60,0 -109,-49 -109,-109 0,-60 49,-109 109,-109z"/>
   <path class="fil4" d="M113 1793c54,0 97,44 97,97 0,54 -44,97 -97,97 -54,0 -97,-44 -97,-97 0,-54 44,-97 97,-97z"/>
   <path class="fil0" d="M633 1182c91,0 164,74 164,164 0,91 -74,164 -164,164 -91,0 -164,-74 -164,-164 0,-91 74,-164 164,-164z"/>
  </g>
 </g>
</svg>
